<mxfile host="app.diagrams.net" modified="2021-12-05T00:55:36.474Z" agent="5.0 (Macintosh; Intel Mac OS X 10_15_7) AppleWebKit/605.1.15 (KHTML, like Gecko) Version/14.1.2 Safari/605.1.15" etag="VSt9uom2YA3eEHkf5JSD" version="15.9.1" type="github">
  <diagram id="R2lEEEUBdFMjLlhIrx00" name="Page-1">
    <mxGraphModel dx="1031" dy="691" grid="0" gridSize="10" guides="1" tooltips="1" connect="1" arrows="1" fold="1" page="1" pageScale="1.2" pageWidth="850" pageHeight="1100" math="0" shadow="0" extFonts="Permanent Marker^https://fonts.googleapis.com/css?family=Permanent+Marker">
      <root>
        <mxCell id="0" />
        <mxCell id="1" parent="0" />
        <mxCell id="uESx4mzOo0HxvKaBSaLz-14" value="" style="swimlane;startSize=0;fillColor=#000000;" vertex="1" parent="1">
          <mxGeometry x="709.25" y="56" width="120" height="70" as="geometry" />
        </mxCell>
        <mxCell id="uESx4mzOo0HxvKaBSaLz-15" value="&lt;font style=&quot;font-size: 22px&quot;&gt;People&lt;br&gt;&lt;/font&gt;" style="text;html=1;strokeColor=none;fillColor=none;align=center;verticalAlign=middle;whiteSpace=wrap;rounded=0;" vertex="1" parent="uESx4mzOo0HxvKaBSaLz-14">
          <mxGeometry x="30" y="20" width="60" height="30" as="geometry" />
        </mxCell>
        <mxCell id="uESx4mzOo0HxvKaBSaLz-22" value="" style="ellipse;whiteSpace=wrap;html=1;aspect=fixed;fontSize=22;fillColor=#000000;" vertex="1" parent="1">
          <mxGeometry x="879.25" y="46" width="10" height="10" as="geometry" />
        </mxCell>
        <mxCell id="uESx4mzOo0HxvKaBSaLz-23" value="" style="endArrow=none;html=1;rounded=0;fontSize=22;" edge="1" parent="1" target="uESx4mzOo0HxvKaBSaLz-22">
          <mxGeometry width="50" height="50" relative="1" as="geometry">
            <mxPoint x="829.25" y="76" as="sourcePoint" />
            <mxPoint x="879.25" y="56" as="targetPoint" />
          </mxGeometry>
        </mxCell>
        <mxCell id="uESx4mzOo0HxvKaBSaLz-25" value="" style="ellipse;whiteSpace=wrap;html=1;aspect=fixed;fontSize=22;fillColor=none;" vertex="1" parent="1">
          <mxGeometry x="879.25" y="116" width="10" height="10" as="geometry" />
        </mxCell>
        <mxCell id="uESx4mzOo0HxvKaBSaLz-26" value="" style="endArrow=none;html=1;rounded=0;fontSize=22;entryX=0;entryY=0;entryDx=0;entryDy=0;" edge="1" parent="1" target="uESx4mzOo0HxvKaBSaLz-25">
          <mxGeometry width="50" height="50" relative="1" as="geometry">
            <mxPoint x="829.25" y="106" as="sourcePoint" />
            <mxPoint x="884.25" y="116" as="targetPoint" />
          </mxGeometry>
        </mxCell>
        <mxCell id="uESx4mzOo0HxvKaBSaLz-27" value="&lt;font style=&quot;font-size: 12px&quot;&gt;name&lt;/font&gt;" style="text;html=1;strokeColor=none;fillColor=none;align=center;verticalAlign=middle;whiteSpace=wrap;rounded=0;fontSize=22;" vertex="1" parent="1">
          <mxGeometry x="881.25" y="102" width="60" height="30" as="geometry" />
        </mxCell>
        <mxCell id="uESx4mzOo0HxvKaBSaLz-28" value="&lt;font style=&quot;font-size: 12px&quot;&gt;id&lt;br&gt;&lt;/font&gt;" style="text;html=1;strokeColor=none;fillColor=none;align=center;verticalAlign=middle;whiteSpace=wrap;rounded=0;fontSize=22;" vertex="1" parent="1">
          <mxGeometry x="873.25" y="32" width="60" height="30" as="geometry" />
        </mxCell>
        <mxCell id="uESx4mzOo0HxvKaBSaLz-29" value="" style="endArrow=none;html=1;rounded=0;fontSize=12;exitX=1;exitY=0.5;exitDx=0;exitDy=0;" edge="1" parent="1" source="uESx4mzOo0HxvKaBSaLz-14">
          <mxGeometry width="50" height="50" relative="1" as="geometry">
            <mxPoint x="869.25" y="66" as="sourcePoint" />
            <mxPoint x="879.25" y="91" as="targetPoint" />
          </mxGeometry>
        </mxCell>
        <mxCell id="uESx4mzOo0HxvKaBSaLz-30" value="" style="ellipse;whiteSpace=wrap;html=1;aspect=fixed;fontSize=22;fillColor=none;" vertex="1" parent="1">
          <mxGeometry x="879.25" y="86" width="10" height="10" as="geometry" />
        </mxCell>
        <mxCell id="uESx4mzOo0HxvKaBSaLz-31" value="&lt;font style=&quot;font-size: 12px&quot;&gt;city_of_birth&lt;br&gt;&lt;/font&gt;" style="text;html=1;strokeColor=none;fillColor=none;align=center;verticalAlign=middle;whiteSpace=wrap;rounded=0;fontSize=22;" vertex="1" parent="1">
          <mxGeometry x="897.25" y="72" width="60" height="30" as="geometry" />
        </mxCell>
        <mxCell id="uESx4mzOo0HxvKaBSaLz-34" style="edgeStyle=orthogonalEdgeStyle;rounded=0;orthogonalLoop=1;jettySize=auto;html=1;entryX=0.5;entryY=1;entryDx=0;entryDy=0;fontSize=12;endArrow=none;endFill=0;" edge="1" parent="1" source="uESx4mzOo0HxvKaBSaLz-32" target="uESx4mzOo0HxvKaBSaLz-14">
          <mxGeometry relative="1" as="geometry" />
        </mxCell>
        <mxCell id="uESx4mzOo0HxvKaBSaLz-36" style="rounded=0;orthogonalLoop=1;jettySize=auto;html=1;exitX=0;exitY=0.25;exitDx=0;exitDy=0;fontSize=12;endArrow=none;endFill=0;entryX=0.5;entryY=0;entryDx=0;entryDy=0;" edge="1" parent="1" source="uESx4mzOo0HxvKaBSaLz-32" target="uESx4mzOo0HxvKaBSaLz-150">
          <mxGeometry relative="1" as="geometry">
            <mxPoint x="583.25" y="521" as="targetPoint" />
            <mxPoint x="648.25" y="476" as="sourcePoint" />
          </mxGeometry>
        </mxCell>
        <mxCell id="uESx4mzOo0HxvKaBSaLz-37" style="rounded=0;orthogonalLoop=1;jettySize=auto;html=1;exitX=0;exitY=0.75;exitDx=0;exitDy=0;fontSize=12;endArrow=none;endFill=0;entryX=0.5;entryY=0;entryDx=0;entryDy=0;" edge="1" parent="1" source="uESx4mzOo0HxvKaBSaLz-32" target="uESx4mzOo0HxvKaBSaLz-43">
          <mxGeometry relative="1" as="geometry">
            <mxPoint x="788.25" y="516" as="targetPoint" />
          </mxGeometry>
        </mxCell>
        <mxCell id="uESx4mzOo0HxvKaBSaLz-32" value="" style="triangle;whiteSpace=wrap;html=1;fontSize=12;fillColor=none;rotation=-90;" vertex="1" parent="1">
          <mxGeometry x="744.25" y="146" width="50" height="60" as="geometry" />
        </mxCell>
        <mxCell id="uESx4mzOo0HxvKaBSaLz-35" style="rounded=0;orthogonalLoop=1;jettySize=auto;html=1;fontSize=12;endArrow=none;endFill=0;entryX=0.5;entryY=0;entryDx=0;entryDy=0;exitX=0;exitY=0.75;exitDx=0;exitDy=0;" edge="1" parent="1" source="uESx4mzOo0HxvKaBSaLz-148" target="uESx4mzOo0HxvKaBSaLz-40">
          <mxGeometry relative="1" as="geometry">
            <mxPoint x="689.25" y="516" as="targetPoint" />
            <mxPoint x="689.2500000000001" y="471" as="sourcePoint" />
          </mxGeometry>
        </mxCell>
        <mxCell id="uESx4mzOo0HxvKaBSaLz-33" value="ISA" style="text;html=1;strokeColor=none;fillColor=none;align=center;verticalAlign=middle;whiteSpace=wrap;rounded=0;fontSize=12;" vertex="1" parent="1">
          <mxGeometry x="749.25" y="169" width="41" height="27" as="geometry" />
        </mxCell>
        <mxCell id="uESx4mzOo0HxvKaBSaLz-48" style="edgeStyle=none;rounded=0;orthogonalLoop=1;jettySize=auto;html=1;exitX=0;exitY=0.25;exitDx=0;exitDy=0;fontSize=12;startArrow=none;startFill=0;endArrow=oval;endFill=0;entryX=1;entryY=0.75;entryDx=0;entryDy=0;endSize=8;" edge="1" parent="1" source="uESx4mzOo0HxvKaBSaLz-38" target="uESx4mzOo0HxvKaBSaLz-49">
          <mxGeometry relative="1" as="geometry">
            <mxPoint x="368.25" y="536" as="targetPoint" />
          </mxGeometry>
        </mxCell>
        <mxCell id="uESx4mzOo0HxvKaBSaLz-215" style="edgeStyle=none;rounded=0;orthogonalLoop=1;jettySize=auto;html=1;exitX=0;exitY=0.75;exitDx=0;exitDy=0;fontSize=15;startArrow=none;startFill=0;endArrow=oval;endFill=0;endSize=8;elbow=vertical;" edge="1" parent="1" source="uESx4mzOo0HxvKaBSaLz-38">
          <mxGeometry relative="1" as="geometry">
            <mxPoint x="357.25" y="572" as="targetPoint" />
          </mxGeometry>
        </mxCell>
        <mxCell id="uESx4mzOo0HxvKaBSaLz-218" style="edgeStyle=none;rounded=0;orthogonalLoop=1;jettySize=auto;html=1;exitX=0.5;exitY=1;exitDx=0;exitDy=0;fontSize=12;startArrow=none;startFill=0;endArrow=none;endFill=0;endSize=8;elbow=vertical;entryX=0.5;entryY=0;entryDx=0;entryDy=0;" edge="1" parent="1" source="uESx4mzOo0HxvKaBSaLz-38" target="uESx4mzOo0HxvKaBSaLz-219">
          <mxGeometry relative="1" as="geometry">
            <mxPoint x="428.1071428571431" y="868" as="targetPoint" />
          </mxGeometry>
        </mxCell>
        <mxCell id="uESx4mzOo0HxvKaBSaLz-38" value="" style="swimlane;startSize=0;fillColor=#000000;" vertex="1" parent="1">
          <mxGeometry x="383.25" y="521" width="90" height="50" as="geometry" />
        </mxCell>
        <mxCell id="uESx4mzOo0HxvKaBSaLz-39" value="&lt;font style=&quot;font-size: 22px&quot;&gt;Player&lt;br&gt;&lt;/font&gt;" style="text;html=1;strokeColor=none;fillColor=none;align=center;verticalAlign=middle;whiteSpace=wrap;rounded=0;" vertex="1" parent="uESx4mzOo0HxvKaBSaLz-38">
          <mxGeometry x="16" y="9" width="60" height="30" as="geometry" />
        </mxCell>
        <mxCell id="uESx4mzOo0HxvKaBSaLz-45" style="rounded=0;orthogonalLoop=1;jettySize=auto;html=1;exitX=0.25;exitY=1;exitDx=0;exitDy=0;fontSize=12;endArrow=oval;endFill=0;startArrow=none;startFill=0;" edge="1" parent="1" source="uESx4mzOo0HxvKaBSaLz-40" target="uESx4mzOo0HxvKaBSaLz-52">
          <mxGeometry relative="1" as="geometry">
            <mxPoint x="648.25" y="606" as="targetPoint" />
          </mxGeometry>
        </mxCell>
        <mxCell id="uESx4mzOo0HxvKaBSaLz-101" style="edgeStyle=none;rounded=0;orthogonalLoop=1;jettySize=auto;html=1;exitX=0.5;exitY=1;exitDx=0;exitDy=0;entryX=0.5;entryY=0;entryDx=0;entryDy=0;fontSize=15;startArrow=none;startFill=0;endArrow=none;endFill=0;endSize=8;" edge="1" parent="1" source="uESx4mzOo0HxvKaBSaLz-40" target="uESx4mzOo0HxvKaBSaLz-97">
          <mxGeometry relative="1" as="geometry" />
        </mxCell>
        <mxCell id="uESx4mzOo0HxvKaBSaLz-40" value="" style="swimlane;startSize=0;fillColor=#000000;" vertex="1" parent="1">
          <mxGeometry x="644.25" y="521" width="90" height="50" as="geometry" />
        </mxCell>
        <mxCell id="uESx4mzOo0HxvKaBSaLz-41" value="&lt;font style=&quot;font-size: 22px&quot;&gt;Coach&lt;br&gt;&lt;/font&gt;" style="text;html=1;strokeColor=none;fillColor=none;align=center;verticalAlign=middle;whiteSpace=wrap;rounded=0;" vertex="1" parent="uESx4mzOo0HxvKaBSaLz-40">
          <mxGeometry x="16" y="9" width="60" height="30" as="geometry" />
        </mxCell>
        <mxCell id="uESx4mzOo0HxvKaBSaLz-46" style="edgeStyle=none;rounded=0;orthogonalLoop=1;jettySize=auto;html=1;exitX=1;exitY=0.25;exitDx=0;exitDy=0;fontSize=12;startArrow=none;startFill=0;endArrow=oval;endFill=0;" edge="1" parent="1" source="uESx4mzOo0HxvKaBSaLz-43">
          <mxGeometry relative="1" as="geometry">
            <mxPoint x="958.25" y="526" as="targetPoint" />
          </mxGeometry>
        </mxCell>
        <mxCell id="uESx4mzOo0HxvKaBSaLz-47" style="edgeStyle=none;rounded=0;orthogonalLoop=1;jettySize=auto;html=1;exitX=1;exitY=0.75;exitDx=0;exitDy=0;fontSize=12;startArrow=none;startFill=0;endArrow=oval;endFill=0;" edge="1" parent="1" source="uESx4mzOo0HxvKaBSaLz-43">
          <mxGeometry relative="1" as="geometry">
            <mxPoint x="958.25" y="566" as="targetPoint" />
          </mxGeometry>
        </mxCell>
        <mxCell id="uESx4mzOo0HxvKaBSaLz-105" value="" style="edgeStyle=none;rounded=0;orthogonalLoop=1;jettySize=auto;html=1;fontSize=15;startArrow=none;startFill=0;endArrow=none;endFill=0;endSize=8;" edge="1" parent="1" source="uESx4mzOo0HxvKaBSaLz-43" target="uESx4mzOo0HxvKaBSaLz-104">
          <mxGeometry relative="1" as="geometry" />
        </mxCell>
        <mxCell id="uESx4mzOo0HxvKaBSaLz-43" value="" style="swimlane;startSize=0;fillColor=#000000;" vertex="1" parent="1">
          <mxGeometry x="828.25" y="521" width="90" height="50" as="geometry" />
        </mxCell>
        <mxCell id="uESx4mzOo0HxvKaBSaLz-44" value="&lt;font style=&quot;font-size: 22px&quot;&gt;Referee&lt;br&gt;&lt;/font&gt;" style="text;html=1;strokeColor=none;fillColor=none;align=center;verticalAlign=middle;whiteSpace=wrap;rounded=0;" vertex="1" parent="uESx4mzOo0HxvKaBSaLz-43">
          <mxGeometry x="16" y="9" width="60" height="30" as="geometry" />
        </mxCell>
        <mxCell id="uESx4mzOo0HxvKaBSaLz-49" value="surname" style="text;html=1;strokeColor=none;fillColor=none;align=center;verticalAlign=middle;whiteSpace=wrap;rounded=0;fontSize=12;" vertex="1" parent="1">
          <mxGeometry x="297.25" y="502" width="61" height="30" as="geometry" />
        </mxCell>
        <mxCell id="uESx4mzOo0HxvKaBSaLz-50" value="surname" style="text;html=1;strokeColor=none;fillColor=none;align=center;verticalAlign=middle;whiteSpace=wrap;rounded=0;fontSize=12;" vertex="1" parent="1">
          <mxGeometry x="960.25" y="509" width="60" height="30" as="geometry" />
        </mxCell>
        <mxCell id="uESx4mzOo0HxvKaBSaLz-51" value="city" style="text;html=1;strokeColor=none;fillColor=none;align=center;verticalAlign=middle;whiteSpace=wrap;rounded=0;fontSize=12;" vertex="1" parent="1">
          <mxGeometry x="946.25" y="550" width="60" height="30" as="geometry" />
        </mxCell>
        <mxCell id="uESx4mzOo0HxvKaBSaLz-52" value="salary" style="text;html=1;strokeColor=none;fillColor=none;align=center;verticalAlign=middle;whiteSpace=wrap;rounded=0;fontSize=12;" vertex="1" parent="1">
          <mxGeometry x="613.25" y="596" width="60" height="30" as="geometry" />
        </mxCell>
        <mxCell id="uESx4mzOo0HxvKaBSaLz-56" style="edgeStyle=none;rounded=0;orthogonalLoop=1;jettySize=auto;html=1;exitX=1;exitY=0.25;exitDx=0;exitDy=0;fontSize=12;startArrow=none;startFill=0;endArrow=oval;endFill=0;endSize=8;" edge="1" parent="1" source="uESx4mzOo0HxvKaBSaLz-54">
          <mxGeometry relative="1" as="geometry">
            <mxPoint x="789.25" y="861.5" as="targetPoint" />
          </mxGeometry>
        </mxCell>
        <mxCell id="uESx4mzOo0HxvKaBSaLz-58" style="edgeStyle=none;rounded=0;orthogonalLoop=1;jettySize=auto;html=1;exitX=1;exitY=0.75;exitDx=0;exitDy=0;fontSize=12;startArrow=none;startFill=0;endArrow=oval;endFill=0;endSize=8;" edge="1" parent="1" source="uESx4mzOo0HxvKaBSaLz-54">
          <mxGeometry relative="1" as="geometry">
            <mxPoint x="789.25" y="911.5" as="targetPoint" />
          </mxGeometry>
        </mxCell>
        <mxCell id="uESx4mzOo0HxvKaBSaLz-59" style="edgeStyle=none;rounded=0;orthogonalLoop=1;jettySize=auto;html=1;exitX=1;exitY=1;exitDx=0;exitDy=0;fontSize=12;startArrow=none;startFill=0;endArrow=oval;endFill=0;" edge="1" parent="1" source="uESx4mzOo0HxvKaBSaLz-54">
          <mxGeometry relative="1" as="geometry">
            <mxPoint x="744.0086206896551" y="921.7758620689656" as="targetPoint" />
          </mxGeometry>
        </mxCell>
        <mxCell id="uESx4mzOo0HxvKaBSaLz-60" style="edgeStyle=none;rounded=0;orthogonalLoop=1;jettySize=auto;html=1;exitX=0.75;exitY=1;exitDx=0;exitDy=0;fontSize=12;startArrow=none;startFill=0;endArrow=oval;endFill=0;endSize=8;" edge="1" parent="1" source="uESx4mzOo0HxvKaBSaLz-54">
          <mxGeometry relative="1" as="geometry">
            <mxPoint x="739.25" y="961.5" as="targetPoint" />
          </mxGeometry>
        </mxCell>
        <mxCell id="uESx4mzOo0HxvKaBSaLz-61" style="edgeStyle=none;rounded=0;orthogonalLoop=1;jettySize=auto;html=1;exitX=0.75;exitY=0;exitDx=0;exitDy=0;fontSize=12;startArrow=none;startFill=0;endArrow=oval;endFill=1;endSize=8;" edge="1" parent="1" source="uESx4mzOo0HxvKaBSaLz-54">
          <mxGeometry relative="1" as="geometry">
            <mxPoint x="749.25" y="811.5" as="targetPoint" />
          </mxGeometry>
        </mxCell>
        <mxCell id="uESx4mzOo0HxvKaBSaLz-64" style="edgeStyle=none;rounded=0;orthogonalLoop=1;jettySize=auto;html=1;exitX=0.25;exitY=1;exitDx=0;exitDy=0;fontSize=12;startArrow=none;startFill=0;endArrow=oval;endFill=0;endSize=8;" edge="1" parent="1" source="uESx4mzOo0HxvKaBSaLz-54">
          <mxGeometry relative="1" as="geometry">
            <mxPoint x="639.25" y="961.5" as="targetPoint" />
          </mxGeometry>
        </mxCell>
        <mxCell id="uESx4mzOo0HxvKaBSaLz-65" style="edgeStyle=none;rounded=0;orthogonalLoop=1;jettySize=auto;html=1;exitX=0;exitY=1;exitDx=0;exitDy=0;fontSize=12;startArrow=none;startFill=0;endArrow=oval;endFill=0;endSize=8;" edge="1" parent="1" source="uESx4mzOo0HxvKaBSaLz-54">
          <mxGeometry relative="1" as="geometry">
            <mxPoint x="599.25" y="941.5" as="targetPoint" />
          </mxGeometry>
        </mxCell>
        <mxCell id="uESx4mzOo0HxvKaBSaLz-66" style="edgeStyle=none;rounded=0;orthogonalLoop=1;jettySize=auto;html=1;exitX=0;exitY=0.75;exitDx=0;exitDy=0;fontSize=12;startArrow=none;startFill=0;endArrow=oval;endFill=0;endSize=10;" edge="1" parent="1" source="uESx4mzOo0HxvKaBSaLz-54">
          <mxGeometry relative="1" as="geometry">
            <mxPoint x="589.25" y="911.5" as="targetPoint" />
          </mxGeometry>
        </mxCell>
        <mxCell id="uESx4mzOo0HxvKaBSaLz-122" style="edgeStyle=elbowEdgeStyle;rounded=0;orthogonalLoop=1;jettySize=auto;html=1;exitX=0.5;exitY=1;exitDx=0;exitDy=0;fontSize=15;startArrow=none;startFill=0;endArrow=none;endFill=0;endSize=8;entryX=0;entryY=0.5;entryDx=0;entryDy=0;elbow=vertical;" edge="1" parent="1" source="uESx4mzOo0HxvKaBSaLz-54" target="uESx4mzOo0HxvKaBSaLz-179">
          <mxGeometry relative="1" as="geometry">
            <mxPoint x="684.25" y="1016.5" as="targetPoint" />
            <Array as="points">
              <mxPoint x="734.25" y="1022" />
            </Array>
          </mxGeometry>
        </mxCell>
        <mxCell id="uESx4mzOo0HxvKaBSaLz-187" style="edgeStyle=none;rounded=0;orthogonalLoop=1;jettySize=auto;html=1;exitX=0.25;exitY=0;exitDx=0;exitDy=0;fontSize=15;startArrow=none;startFill=0;endArrow=oval;endFill=0;endSize=8;elbow=vertical;" edge="1" parent="1" source="uESx4mzOo0HxvKaBSaLz-54">
          <mxGeometry relative="1" as="geometry">
            <mxPoint x="627.25" y="820" as="targetPoint" />
          </mxGeometry>
        </mxCell>
        <mxCell id="uESx4mzOo0HxvKaBSaLz-217" style="edgeStyle=elbowEdgeStyle;rounded=0;orthogonalLoop=1;jettySize=auto;html=1;exitX=0;exitY=0.25;exitDx=0;exitDy=0;fontSize=12;startArrow=none;startFill=0;endArrow=none;endFill=0;endSize=8;entryX=0.5;entryY=1;entryDx=0;entryDy=0;" edge="1" parent="1" source="uESx4mzOo0HxvKaBSaLz-54" target="uESx4mzOo0HxvKaBSaLz-219">
          <mxGeometry relative="1" as="geometry">
            <mxPoint x="417.25" y="869.1428571428573" as="targetPoint" />
            <Array as="points">
              <mxPoint x="428.25" y="850" />
            </Array>
          </mxGeometry>
        </mxCell>
        <mxCell id="uESx4mzOo0HxvKaBSaLz-54" value="" style="swimlane;startSize=0;fillColor=#000000;" vertex="1" parent="1">
          <mxGeometry x="624.25" y="851.5" width="120" height="70" as="geometry" />
        </mxCell>
        <mxCell id="uESx4mzOo0HxvKaBSaLz-55" value="&lt;font style=&quot;font-size: 22px&quot;&gt;Match&lt;br&gt;&lt;/font&gt;" style="text;html=1;strokeColor=none;fillColor=none;align=center;verticalAlign=middle;whiteSpace=wrap;rounded=0;" vertex="1" parent="uESx4mzOo0HxvKaBSaLz-54">
          <mxGeometry x="30" y="20" width="60" height="30" as="geometry" />
        </mxCell>
        <mxCell id="uESx4mzOo0HxvKaBSaLz-62" value="id" style="text;html=1;strokeColor=none;fillColor=none;align=center;verticalAlign=middle;whiteSpace=wrap;rounded=0;fontSize=12;" vertex="1" parent="1">
          <mxGeometry x="735.25" y="791.5" width="60" height="30" as="geometry" />
        </mxCell>
        <mxCell id="uESx4mzOo0HxvKaBSaLz-67" value="day" style="text;html=1;strokeColor=none;fillColor=none;align=center;verticalAlign=middle;whiteSpace=wrap;rounded=0;fontSize=12;" vertex="1" parent="1">
          <mxGeometry x="528.25" y="898.5" width="60" height="30" as="geometry" />
        </mxCell>
        <mxCell id="uESx4mzOo0HxvKaBSaLz-68" value="month" style="text;html=1;strokeColor=none;fillColor=none;align=center;verticalAlign=middle;whiteSpace=wrap;rounded=0;fontSize=12;" vertex="1" parent="1">
          <mxGeometry x="559.25" y="941.5" width="60" height="30" as="geometry" />
        </mxCell>
        <mxCell id="uESx4mzOo0HxvKaBSaLz-69" value="year" style="text;html=1;strokeColor=none;fillColor=none;align=center;verticalAlign=middle;whiteSpace=wrap;rounded=0;fontSize=12;" vertex="1" parent="1">
          <mxGeometry x="609.25" y="964.5" width="60" height="30" as="geometry" />
        </mxCell>
        <mxCell id="uESx4mzOo0HxvKaBSaLz-70" value="series" style="text;html=1;strokeColor=none;fillColor=none;align=center;verticalAlign=middle;whiteSpace=wrap;rounded=0;fontSize=12;" vertex="1" parent="1">
          <mxGeometry x="731.25" y="951.5" width="60" height="30" as="geometry" />
        </mxCell>
        <mxCell id="uESx4mzOo0HxvKaBSaLz-71" value="serie_nbr" style="text;html=1;strokeColor=none;fillColor=none;align=center;verticalAlign=middle;whiteSpace=wrap;rounded=0;fontSize=12;" vertex="1" parent="1">
          <mxGeometry x="794.25" y="899.5" width="60" height="30" as="geometry" />
        </mxCell>
        <mxCell id="uESx4mzOo0HxvKaBSaLz-72" style="edgeStyle=none;rounded=0;orthogonalLoop=1;jettySize=auto;html=1;exitX=0;exitY=0.25;exitDx=0;exitDy=0;fontSize=12;startArrow=none;startFill=0;endArrow=oval;endFill=0;endSize=8;" edge="1" parent="1" source="uESx4mzOo0HxvKaBSaLz-80">
          <mxGeometry relative="1" as="geometry">
            <mxPoint x="143.25" y="669" as="targetPoint" />
          </mxGeometry>
        </mxCell>
        <mxCell id="uESx4mzOo0HxvKaBSaLz-76" style="edgeStyle=none;rounded=0;orthogonalLoop=1;jettySize=auto;html=1;exitX=0.75;exitY=0;exitDx=0;exitDy=0;fontSize=12;startArrow=none;startFill=0;endArrow=oval;endFill=1;endSize=8;" edge="1" parent="1">
          <mxGeometry relative="1" as="geometry">
            <mxPoint x="193.25" y="628" as="targetPoint" />
            <mxPoint x="223.25" y="667.5" as="sourcePoint" />
          </mxGeometry>
        </mxCell>
        <mxCell id="uESx4mzOo0HxvKaBSaLz-98" value="" style="edgeStyle=elbowEdgeStyle;rounded=0;orthogonalLoop=1;jettySize=auto;html=1;fontSize=15;startArrow=none;startFill=0;endArrow=none;endFill=0;endSize=8;exitX=1;exitY=0.5;exitDx=0;exitDy=0;elbow=vertical;" edge="1" parent="1" source="uESx4mzOo0HxvKaBSaLz-80" target="uESx4mzOo0HxvKaBSaLz-97">
          <mxGeometry relative="1" as="geometry">
            <Array as="points">
              <mxPoint x="479.25" y="708" />
            </Array>
          </mxGeometry>
        </mxCell>
        <mxCell id="uESx4mzOo0HxvKaBSaLz-116" style="rounded=0;orthogonalLoop=1;jettySize=auto;html=1;exitX=0;exitY=0.5;exitDx=0;exitDy=0;entryX=1;entryY=0.5;entryDx=0;entryDy=0;fontSize=15;startArrow=none;startFill=0;endArrow=none;endFill=0;endSize=8;" edge="1" parent="1" source="uESx4mzOo0HxvKaBSaLz-80" target="uESx4mzOo0HxvKaBSaLz-114">
          <mxGeometry relative="1" as="geometry" />
        </mxCell>
        <mxCell id="uESx4mzOo0HxvKaBSaLz-171" style="edgeStyle=none;rounded=0;orthogonalLoop=1;jettySize=auto;html=1;exitX=0.5;exitY=0;exitDx=0;exitDy=0;entryX=0.5;entryY=1;entryDx=0;entryDy=0;fontSize=15;startArrow=none;startFill=0;endArrow=none;endFill=0;endSize=10;" edge="1" parent="1" source="uESx4mzOo0HxvKaBSaLz-80" target="uESx4mzOo0HxvKaBSaLz-168">
          <mxGeometry relative="1" as="geometry" />
        </mxCell>
        <mxCell id="uESx4mzOo0HxvKaBSaLz-80" value="" style="swimlane;startSize=0;fillColor=#000000;" vertex="1" parent="1">
          <mxGeometry x="203.25" y="667.5" width="143" height="70" as="geometry" />
        </mxCell>
        <mxCell id="uESx4mzOo0HxvKaBSaLz-81" value="&lt;font style=&quot;font-size: 22px&quot;&gt;Team&lt;br&gt;&lt;/font&gt;" style="text;html=1;strokeColor=none;fillColor=none;align=center;verticalAlign=middle;whiteSpace=wrap;rounded=0;" vertex="1" parent="uESx4mzOo0HxvKaBSaLz-80">
          <mxGeometry x="38" y="20" width="60" height="30" as="geometry" />
        </mxCell>
        <mxCell id="uESx4mzOo0HxvKaBSaLz-86" value="team_id" style="text;html=1;strokeColor=none;fillColor=none;align=center;verticalAlign=middle;whiteSpace=wrap;rounded=0;fontSize=12;" vertex="1" parent="1">
          <mxGeometry x="127.25" y="604" width="60" height="30" as="geometry" />
        </mxCell>
        <mxCell id="uESx4mzOo0HxvKaBSaLz-87" value="city" style="text;html=1;strokeColor=none;fillColor=none;align=center;verticalAlign=middle;whiteSpace=wrap;rounded=0;fontSize=12;" vertex="1" parent="1">
          <mxGeometry x="92.25" y="652" width="63" height="30" as="geometry" />
        </mxCell>
        <mxCell id="uESx4mzOo0HxvKaBSaLz-100" style="edgeStyle=none;rounded=0;orthogonalLoop=1;jettySize=auto;html=1;exitX=0.5;exitY=1;exitDx=0;exitDy=0;entryX=0.5;entryY=0;entryDx=0;entryDy=0;fontSize=15;startArrow=none;startFill=0;endArrow=none;endFill=0;endSize=8;" edge="1" parent="1" source="uESx4mzOo0HxvKaBSaLz-97" target="uESx4mzOo0HxvKaBSaLz-54">
          <mxGeometry relative="1" as="geometry" />
        </mxCell>
        <mxCell id="uESx4mzOo0HxvKaBSaLz-197" style="edgeStyle=none;rounded=0;orthogonalLoop=1;jettySize=auto;html=1;exitX=1;exitY=0;exitDx=0;exitDy=0;fontSize=15;startArrow=none;startFill=0;endArrow=oval;endFill=0;endSize=8;elbow=vertical;" edge="1" parent="1" source="uESx4mzOo0HxvKaBSaLz-97">
          <mxGeometry relative="1" as="geometry">
            <mxPoint x="748.13" y="668" as="targetPoint" />
          </mxGeometry>
        </mxCell>
        <mxCell id="uESx4mzOo0HxvKaBSaLz-97" value="" style="rhombus;whiteSpace=wrap;html=1;fontStyle=1;fillColor=none;startSize=0;" vertex="1" parent="1">
          <mxGeometry x="626.88" y="668" width="118.5" height="80" as="geometry" />
        </mxCell>
        <mxCell id="uESx4mzOo0HxvKaBSaLz-99" value="Participations" style="text;html=1;strokeColor=none;fillColor=none;align=center;verticalAlign=middle;whiteSpace=wrap;rounded=0;fontSize=15;" vertex="1" parent="1">
          <mxGeometry x="660.13" y="693" width="60" height="30" as="geometry" />
        </mxCell>
        <mxCell id="uESx4mzOo0HxvKaBSaLz-107" style="edgeStyle=elbowEdgeStyle;rounded=0;orthogonalLoop=1;jettySize=auto;html=1;exitX=0.5;exitY=1;exitDx=0;exitDy=0;fontSize=15;startArrow=none;startFill=0;endArrow=none;endFill=0;endSize=8;entryX=1;entryY=0.5;entryDx=0;entryDy=0;" edge="1" parent="1" source="uESx4mzOo0HxvKaBSaLz-104" target="uESx4mzOo0HxvKaBSaLz-54">
          <mxGeometry relative="1" as="geometry">
            <mxPoint x="873.25" y="914" as="targetPoint" />
            <Array as="points">
              <mxPoint x="873.25" y="814" />
            </Array>
          </mxGeometry>
        </mxCell>
        <mxCell id="uESx4mzOo0HxvKaBSaLz-104" value="" style="rhombus;whiteSpace=wrap;html=1;fontStyle=1;fillColor=none;startSize=0;" vertex="1" parent="1">
          <mxGeometry x="816.25" y="662.5" width="114" height="80" as="geometry" />
        </mxCell>
        <mxCell id="uESx4mzOo0HxvKaBSaLz-106" value="Refereeing" style="text;html=1;strokeColor=none;fillColor=none;align=center;verticalAlign=middle;whiteSpace=wrap;rounded=0;fontSize=15;" vertex="1" parent="1">
          <mxGeometry x="843.25" y="687.5" width="60" height="30" as="geometry" />
        </mxCell>
        <mxCell id="uESx4mzOo0HxvKaBSaLz-115" value="" style="edgeStyle=elbowEdgeStyle;rounded=0;orthogonalLoop=1;jettySize=auto;html=1;fontSize=15;startArrow=none;startFill=0;endArrow=none;endFill=0;endSize=8;exitX=0.5;exitY=0;exitDx=0;exitDy=0;" edge="1" parent="1" source="uESx4mzOo0HxvKaBSaLz-141" target="uESx4mzOo0HxvKaBSaLz-114">
          <mxGeometry relative="1" as="geometry" />
        </mxCell>
        <mxCell id="uESx4mzOo0HxvKaBSaLz-120" style="edgeStyle=none;rounded=0;orthogonalLoop=1;jettySize=auto;html=1;exitX=0.5;exitY=1;exitDx=0;exitDy=0;fontSize=15;startArrow=none;startFill=0;endArrow=oval;endFill=0;endSize=8;" edge="1" parent="1" source="uESx4mzOo0HxvKaBSaLz-110">
          <mxGeometry relative="1" as="geometry">
            <mxPoint x="80" y="960" as="targetPoint" />
          </mxGeometry>
        </mxCell>
        <mxCell id="uESx4mzOo0HxvKaBSaLz-135" style="rounded=0;orthogonalLoop=1;jettySize=auto;elbow=vertical;html=1;exitX=0.75;exitY=0;exitDx=0;exitDy=0;fontSize=15;startArrow=none;startFill=0;endArrow=oval;endFill=0;endSize=8;entryX=0;entryY=0.5;entryDx=0;entryDy=0;" edge="1" parent="1" source="uESx4mzOo0HxvKaBSaLz-110">
          <mxGeometry relative="1" as="geometry">
            <mxPoint x="120.25" y="810" as="targetPoint" />
            <mxPoint x="107.49999999999977" y="737.5" as="sourcePoint" />
          </mxGeometry>
        </mxCell>
        <mxCell id="uESx4mzOo0HxvKaBSaLz-110" value="" style="swimlane;startSize=0;fillColor=#000000;" vertex="1" parent="1">
          <mxGeometry x="12" y="857.5" width="91" height="54.5" as="geometry" />
        </mxCell>
        <mxCell id="uESx4mzOo0HxvKaBSaLz-111" value="&lt;font style=&quot;font-size: 22px&quot;&gt;Points&lt;br&gt;&lt;/font&gt;" style="text;html=1;strokeColor=none;fillColor=none;align=center;verticalAlign=middle;whiteSpace=wrap;rounded=0;" vertex="1" parent="uESx4mzOo0HxvKaBSaLz-110">
          <mxGeometry x="17.5" y="13" width="60" height="30" as="geometry" />
        </mxCell>
        <mxCell id="uESx4mzOo0HxvKaBSaLz-114" value="" style="rhombus;whiteSpace=wrap;html=1;fontStyle=1;fillColor=none;startSize=0;" vertex="1" parent="1">
          <mxGeometry x="1" y="662.5" width="111.5" height="80" as="geometry" />
        </mxCell>
        <mxCell id="uESx4mzOo0HxvKaBSaLz-117" value="Rankings" style="text;html=1;strokeColor=none;fillColor=none;align=center;verticalAlign=middle;whiteSpace=wrap;rounded=0;fontSize=15;" vertex="1" parent="1">
          <mxGeometry x="26.75" y="687.5" width="60" height="30" as="geometry" />
        </mxCell>
        <mxCell id="uESx4mzOo0HxvKaBSaLz-121" value="points" style="text;html=1;strokeColor=none;fillColor=none;align=center;verticalAlign=middle;whiteSpace=wrap;rounded=0;fontSize=15;" vertex="1" parent="1">
          <mxGeometry x="57.75" y="974" width="60" height="30" as="geometry" />
        </mxCell>
        <mxCell id="uESx4mzOo0HxvKaBSaLz-163" style="edgeStyle=none;rounded=0;orthogonalLoop=1;jettySize=auto;html=1;exitX=0.75;exitY=0;exitDx=0;exitDy=0;fontSize=15;startArrow=none;startFill=0;endArrow=oval;endFill=0;endSize=10;" edge="1" parent="1" source="uESx4mzOo0HxvKaBSaLz-125" target="uESx4mzOo0HxvKaBSaLz-164">
          <mxGeometry relative="1" as="geometry">
            <mxPoint x="334.00000000000045" y="56" as="targetPoint" />
          </mxGeometry>
        </mxCell>
        <mxCell id="uESx4mzOo0HxvKaBSaLz-165" style="edgeStyle=none;rounded=0;orthogonalLoop=1;jettySize=auto;html=1;exitX=0.5;exitY=0;exitDx=0;exitDy=0;fontSize=15;startArrow=none;startFill=0;endArrow=oval;endFill=1;endSize=10;" edge="1" parent="1" source="uESx4mzOo0HxvKaBSaLz-125" target="uESx4mzOo0HxvKaBSaLz-166">
          <mxGeometry relative="1" as="geometry">
            <mxPoint x="274.8888888888887" y="66" as="targetPoint" />
          </mxGeometry>
        </mxCell>
        <mxCell id="uESx4mzOo0HxvKaBSaLz-172" style="edgeStyle=none;rounded=0;orthogonalLoop=1;jettySize=auto;html=1;exitX=0.5;exitY=1;exitDx=0;exitDy=0;entryX=0.5;entryY=0;entryDx=0;entryDy=0;fontSize=15;startArrow=none;startFill=0;endArrow=none;endFill=0;endSize=10;" edge="1" parent="1" source="uESx4mzOo0HxvKaBSaLz-125" target="uESx4mzOo0HxvKaBSaLz-168">
          <mxGeometry relative="1" as="geometry" />
        </mxCell>
        <mxCell id="uESx4mzOo0HxvKaBSaLz-125" value="" style="swimlane;startSize=0;fillColor=#000000;" vertex="1" parent="1">
          <mxGeometry x="213.25" y="96" width="124" height="60" as="geometry" />
        </mxCell>
        <mxCell id="uESx4mzOo0HxvKaBSaLz-126" value="&lt;font style=&quot;font-size: 22px&quot;&gt;Contract&lt;br&gt;&lt;/font&gt;" style="text;html=1;strokeColor=none;fillColor=none;align=center;verticalAlign=middle;whiteSpace=wrap;rounded=0;" vertex="1" parent="uESx4mzOo0HxvKaBSaLz-125">
          <mxGeometry x="33" y="16" width="60" height="30" as="geometry" />
        </mxCell>
        <mxCell id="uESx4mzOo0HxvKaBSaLz-136" value="day_nbr" style="text;html=1;strokeColor=none;fillColor=none;align=center;verticalAlign=middle;whiteSpace=wrap;rounded=0;fontSize=15;" vertex="1" parent="1">
          <mxGeometry x="117.25" y="793" width="80" height="30" as="geometry" />
        </mxCell>
        <mxCell id="uESx4mzOo0HxvKaBSaLz-137" value="tournament_day" style="text;html=1;strokeColor=none;fillColor=none;align=center;verticalAlign=middle;whiteSpace=wrap;rounded=0;fontSize=12;" vertex="1" parent="1">
          <mxGeometry x="783.25" y="830" width="60" height="30" as="geometry" />
        </mxCell>
        <mxCell id="uESx4mzOo0HxvKaBSaLz-139" value="" style="endArrow=oval;html=1;rounded=0;fontSize=15;endSize=10;elbow=vertical;endFill=1;entryX=0.25;entryY=0;entryDx=0;entryDy=0;startArrow=none;" edge="1" parent="1" source="uESx4mzOo0HxvKaBSaLz-143" target="uESx4mzOo0HxvKaBSaLz-212">
          <mxGeometry relative="1" as="geometry">
            <mxPoint x="150.25" y="828" as="sourcePoint" />
            <mxPoint x="-49.75" y="828" as="targetPoint" />
          </mxGeometry>
        </mxCell>
        <mxCell id="uESx4mzOo0HxvKaBSaLz-141" value="" style="ellipse;whiteSpace=wrap;html=1;aspect=fixed;fontSize=15;fillColor=#000000;" vertex="1" parent="1">
          <mxGeometry x="53.75" y="825" width="6" height="6" as="geometry" />
        </mxCell>
        <mxCell id="uESx4mzOo0HxvKaBSaLz-142" value="" style="edgeStyle=elbowEdgeStyle;rounded=0;orthogonalLoop=1;jettySize=auto;html=1;fontSize=15;startArrow=none;startFill=0;endArrow=none;endFill=0;endSize=8;exitX=0.5;exitY=0;exitDx=0;exitDy=0;" edge="1" parent="1" source="uESx4mzOo0HxvKaBSaLz-110" target="uESx4mzOo0HxvKaBSaLz-141">
          <mxGeometry relative="1" as="geometry">
            <mxPoint x="56.75" y="857.5" as="sourcePoint" />
            <mxPoint x="56.44047619047615" y="742.2779201366645" as="targetPoint" />
          </mxGeometry>
        </mxCell>
        <mxCell id="uESx4mzOo0HxvKaBSaLz-153" style="rounded=0;orthogonalLoop=1;jettySize=auto;html=1;exitX=0;exitY=0.25;exitDx=0;exitDy=0;entryX=0.5;entryY=0;entryDx=0;entryDy=0;fontSize=18;startArrow=none;startFill=0;endArrow=none;endFill=0;endSize=10;" edge="1" parent="1" source="uESx4mzOo0HxvKaBSaLz-148" target="uESx4mzOo0HxvKaBSaLz-38">
          <mxGeometry relative="1" as="geometry" />
        </mxCell>
        <mxCell id="uESx4mzOo0HxvKaBSaLz-148" value="" style="triangle;whiteSpace=wrap;html=1;fontSize=12;fillColor=none;rotation=-90;" vertex="1" parent="1">
          <mxGeometry x="536.25" y="362" width="50" height="60" as="geometry" />
        </mxCell>
        <mxCell id="uESx4mzOo0HxvKaBSaLz-151" value="" style="edgeStyle=elbowEdgeStyle;rounded=0;orthogonalLoop=1;jettySize=auto;html=1;fontSize=15;startArrow=none;startFill=0;endArrow=none;endFill=0;endSize=10;exitX=1;exitY=0.5;exitDx=0;exitDy=0;" edge="1" parent="1" source="uESx4mzOo0HxvKaBSaLz-148" target="uESx4mzOo0HxvKaBSaLz-150">
          <mxGeometry relative="1" as="geometry">
            <mxPoint x="563.25" y="402" as="sourcePoint" />
          </mxGeometry>
        </mxCell>
        <mxCell id="uESx4mzOo0HxvKaBSaLz-149" value="ISA" style="text;html=1;strokeColor=none;fillColor=none;align=center;verticalAlign=middle;whiteSpace=wrap;rounded=0;fontSize=12;" vertex="1" parent="1">
          <mxGeometry x="541.25" y="385" width="41" height="27" as="geometry" />
        </mxCell>
        <mxCell id="uESx4mzOo0HxvKaBSaLz-169" value="" style="rounded=0;orthogonalLoop=1;jettySize=auto;html=1;fontSize=15;startArrow=none;startFill=0;endArrow=none;endFill=0;endSize=10;" edge="1" parent="1" source="uESx4mzOo0HxvKaBSaLz-150" target="uESx4mzOo0HxvKaBSaLz-168">
          <mxGeometry relative="1" as="geometry" />
        </mxCell>
        <mxCell id="uESx4mzOo0HxvKaBSaLz-150" value="" style="whiteSpace=wrap;html=1;fontSize=15;fillColor=none;" vertex="1" parent="1">
          <mxGeometry x="498.25" y="266" width="126" height="60" as="geometry" />
        </mxCell>
        <mxCell id="uESx4mzOo0HxvKaBSaLz-152" value="TeamMember" style="text;html=1;strokeColor=none;fillColor=none;align=center;verticalAlign=middle;whiteSpace=wrap;rounded=0;fontSize=18;" vertex="1" parent="1">
          <mxGeometry x="532.25" y="281" width="60" height="30" as="geometry" />
        </mxCell>
        <mxCell id="uESx4mzOo0HxvKaBSaLz-158" style="edgeStyle=none;rounded=0;orthogonalLoop=1;jettySize=auto;html=1;exitX=1;exitY=0.5;exitDx=0;exitDy=0;entryX=0.25;entryY=1;entryDx=0;entryDy=0;fontSize=18;startArrow=none;startFill=0;endArrow=none;endFill=0;endSize=10;" edge="1" parent="1" source="uESx4mzOo0HxvKaBSaLz-156" target="uESx4mzOo0HxvKaBSaLz-125">
          <mxGeometry relative="1" as="geometry" />
        </mxCell>
        <mxCell id="uESx4mzOo0HxvKaBSaLz-156" value="" style="triangle;whiteSpace=wrap;html=1;fontSize=12;fillColor=none;rotation=-90;" vertex="1" parent="1">
          <mxGeometry x="50" y="211.5" width="50" height="60" as="geometry" />
        </mxCell>
        <mxCell id="uESx4mzOo0HxvKaBSaLz-160" value="" style="edgeStyle=none;rounded=0;orthogonalLoop=1;jettySize=auto;html=1;fontSize=18;startArrow=none;startFill=0;endArrow=none;endFill=0;endSize=10;" edge="1" parent="1" source="uESx4mzOo0HxvKaBSaLz-157" target="uESx4mzOo0HxvKaBSaLz-159">
          <mxGeometry relative="1" as="geometry" />
        </mxCell>
        <mxCell id="uESx4mzOo0HxvKaBSaLz-157" value="ISA" style="text;html=1;strokeColor=none;fillColor=none;align=center;verticalAlign=middle;whiteSpace=wrap;rounded=0;fontSize=12;" vertex="1" parent="1">
          <mxGeometry x="55" y="234.5" width="41" height="27" as="geometry" />
        </mxCell>
        <mxCell id="uESx4mzOo0HxvKaBSaLz-161" style="edgeStyle=none;rounded=0;orthogonalLoop=1;jettySize=auto;html=1;exitX=0.5;exitY=1;exitDx=0;exitDy=0;fontSize=18;startArrow=none;startFill=0;endArrow=oval;endFill=0;endSize=10;entryX=0.5;entryY=0;entryDx=0;entryDy=0;" edge="1" parent="1" source="uESx4mzOo0HxvKaBSaLz-159" target="uESx4mzOo0HxvKaBSaLz-162">
          <mxGeometry relative="1" as="geometry">
            <mxPoint x="-31" y="315" as="targetPoint" />
          </mxGeometry>
        </mxCell>
        <mxCell id="uESx4mzOo0HxvKaBSaLz-159" value="PastContract" style="whiteSpace=wrap;html=1;fontSize=18;fillColor=none;" vertex="1" parent="1">
          <mxGeometry x="15.5" y="325" width="120" height="60" as="geometry" />
        </mxCell>
        <mxCell id="uESx4mzOo0HxvKaBSaLz-162" value="&lt;font style=&quot;font-size: 15px&quot;&gt;end_date&lt;/font&gt;" style="text;html=1;strokeColor=none;fillColor=none;align=center;verticalAlign=middle;whiteSpace=wrap;rounded=0;fontSize=18;" vertex="1" parent="1">
          <mxGeometry x="46" y="434" width="60" height="30" as="geometry" />
        </mxCell>
        <mxCell id="uESx4mzOo0HxvKaBSaLz-164" value="start_date" style="text;html=1;strokeColor=none;fillColor=none;align=center;verticalAlign=middle;whiteSpace=wrap;rounded=0;fontSize=15;" vertex="1" parent="1">
          <mxGeometry x="314" y="36" width="60" height="34" as="geometry" />
        </mxCell>
        <mxCell id="uESx4mzOo0HxvKaBSaLz-166" value="id" style="text;html=1;strokeColor=none;fillColor=none;align=center;verticalAlign=middle;whiteSpace=wrap;rounded=0;fontSize=15;" vertex="1" parent="1">
          <mxGeometry x="245.25" y="26" width="60" height="42" as="geometry" />
        </mxCell>
        <mxCell id="uESx4mzOo0HxvKaBSaLz-168" value="" style="rhombus;whiteSpace=wrap;html=1;fontSize=15;fillColor=none;" vertex="1" parent="1">
          <mxGeometry x="206.25" y="256" width="140" height="80" as="geometry" />
        </mxCell>
        <mxCell id="uESx4mzOo0HxvKaBSaLz-173" value="&lt;font style=&quot;font-size: 17px&quot;&gt;Contractors&lt;/font&gt;" style="text;html=1;strokeColor=none;fillColor=none;align=center;verticalAlign=middle;whiteSpace=wrap;rounded=0;fontSize=16;" vertex="1" parent="1">
          <mxGeometry x="245.25" y="282" width="60" height="29" as="geometry" />
        </mxCell>
        <mxCell id="uESx4mzOo0HxvKaBSaLz-178" value="" style="edgeStyle=none;rounded=0;orthogonalLoop=1;jettySize=auto;html=1;fontSize=21;startArrow=none;startFill=0;endArrow=none;endFill=0;endSize=10;" edge="1" parent="1" source="uESx4mzOo0HxvKaBSaLz-174" target="uESx4mzOo0HxvKaBSaLz-177">
          <mxGeometry relative="1" as="geometry" />
        </mxCell>
        <mxCell id="uESx4mzOo0HxvKaBSaLz-182" style="rounded=0;orthogonalLoop=1;jettySize=auto;elbow=vertical;html=1;exitX=0.5;exitY=1;exitDx=0;exitDy=0;fontSize=21;startArrow=none;startFill=0;endArrow=oval;endFill=0;endSize=10;" edge="1" parent="1" source="uESx4mzOo0HxvKaBSaLz-174">
          <mxGeometry relative="1" as="geometry">
            <mxPoint x="481.75" y="1165" as="targetPoint" />
          </mxGeometry>
        </mxCell>
        <mxCell id="uESx4mzOo0HxvKaBSaLz-174" value="&lt;font style=&quot;font-size: 21px&quot;&gt;Postponed&lt;/font&gt;" style="whiteSpace=wrap;html=1;fontSize=17;fillColor=none;" vertex="1" parent="1">
          <mxGeometry x="421.75" y="1055" width="120" height="60" as="geometry" />
        </mxCell>
        <mxCell id="uESx4mzOo0HxvKaBSaLz-180" value="" style="edgeStyle=none;rounded=0;orthogonalLoop=1;jettySize=auto;html=1;fontSize=21;startArrow=none;startFill=0;endArrow=none;endFill=0;endSize=10;" edge="1" parent="1" source="uESx4mzOo0HxvKaBSaLz-176" target="uESx4mzOo0HxvKaBSaLz-179">
          <mxGeometry relative="1" as="geometry" />
        </mxCell>
        <mxCell id="uESx4mzOo0HxvKaBSaLz-225" style="edgeStyle=none;rounded=0;orthogonalLoop=1;jettySize=auto;html=1;exitX=0.5;exitY=1;exitDx=0;exitDy=0;fontSize=12;startArrow=none;startFill=0;endArrow=oval;endFill=0;endSize=8;" edge="1" parent="1" source="uESx4mzOo0HxvKaBSaLz-176">
          <mxGeometry relative="1" as="geometry">
            <mxPoint x="850.1447368421054" y="1241.5" as="targetPoint" />
          </mxGeometry>
        </mxCell>
        <mxCell id="uESx4mzOo0HxvKaBSaLz-176" value="&lt;font style=&quot;font-size: 21px&quot;&gt;Outside&lt;/font&gt;" style="whiteSpace=wrap;html=1;fontSize=17;fillColor=none;" vertex="1" parent="1">
          <mxGeometry x="790.25" y="1131.5" width="120" height="60" as="geometry" />
        </mxCell>
        <mxCell id="uESx4mzOo0HxvKaBSaLz-181" style="edgeStyle=elbowEdgeStyle;rounded=0;orthogonalLoop=1;jettySize=auto;elbow=vertical;html=1;exitX=0.5;exitY=0;exitDx=0;exitDy=0;entryX=0;entryY=0.5;entryDx=0;entryDy=0;fontSize=21;startArrow=none;startFill=0;endArrow=none;endFill=0;endSize=10;" edge="1" parent="1" source="uESx4mzOo0HxvKaBSaLz-177" target="uESx4mzOo0HxvKaBSaLz-54">
          <mxGeometry relative="1" as="geometry">
            <Array as="points">
              <mxPoint x="547.25" y="887" />
            </Array>
          </mxGeometry>
        </mxCell>
        <mxCell id="uESx4mzOo0HxvKaBSaLz-177" value="Postponed&lt;br&gt;Match" style="rhombus;whiteSpace=wrap;html=1;fontSize=17;fillColor=none;" vertex="1" parent="1">
          <mxGeometry x="421.75" y="905" width="116" height="80" as="geometry" />
        </mxCell>
        <mxCell id="uESx4mzOo0HxvKaBSaLz-179" value="Played &lt;br&gt;Outside" style="rhombus;whiteSpace=wrap;html=1;fontSize=17;fillColor=none;" vertex="1" parent="1">
          <mxGeometry x="790.25" y="981.5" width="120" height="80" as="geometry" />
        </mxCell>
        <mxCell id="uESx4mzOo0HxvKaBSaLz-183" value="&lt;font style=&quot;font-size: 15px&quot;&gt;date_played&lt;/font&gt;" style="text;html=1;strokeColor=none;fillColor=none;align=center;verticalAlign=middle;whiteSpace=wrap;rounded=0;fontSize=21;" vertex="1" parent="1">
          <mxGeometry x="451.75" y="1175" width="60" height="30" as="geometry" />
        </mxCell>
        <mxCell id="uESx4mzOo0HxvKaBSaLz-189" value="city" style="text;html=1;strokeColor=none;fillColor=none;align=center;verticalAlign=middle;whiteSpace=wrap;rounded=0;fontSize=15;" vertex="1" parent="1">
          <mxGeometry x="586.25" y="790" width="60" height="30" as="geometry" />
        </mxCell>
        <mxCell id="uESx4mzOo0HxvKaBSaLz-193" value="" style="endArrow=oval;html=1;rounded=0;fontSize=15;endSize=10;elbow=vertical;endFill=1;" edge="1" parent="1">
          <mxGeometry relative="1" as="geometry">
            <mxPoint x="514.75" y="1030.5" as="sourcePoint" />
            <mxPoint x="374.75" y="1030.0000000000005" as="targetPoint" />
          </mxGeometry>
        </mxCell>
        <mxCell id="uESx4mzOo0HxvKaBSaLz-194" value="" style="ellipse;whiteSpace=wrap;html=1;aspect=fixed;fontSize=15;fillColor=#000000;" vertex="1" parent="1">
          <mxGeometry x="478.25" y="1027" width="6" height="6" as="geometry" />
        </mxCell>
        <mxCell id="uESx4mzOo0HxvKaBSaLz-195" value="" style="endArrow=oval;html=1;rounded=0;fontSize=15;endSize=10;elbow=vertical;endFill=1;" edge="1" parent="1">
          <mxGeometry relative="1" as="geometry">
            <mxPoint x="884.25" y="1110" as="sourcePoint" />
            <mxPoint x="744.25" y="1109.5000000000005" as="targetPoint" />
          </mxGeometry>
        </mxCell>
        <mxCell id="uESx4mzOo0HxvKaBSaLz-196" value="" style="ellipse;whiteSpace=wrap;html=1;aspect=fixed;fontSize=15;fillColor=#000000;" vertex="1" parent="1">
          <mxGeometry x="847.75" y="1106.5" width="6" height="6" as="geometry" />
        </mxCell>
        <mxCell id="uESx4mzOo0HxvKaBSaLz-198" value="home" style="text;html=1;strokeColor=none;fillColor=none;align=center;verticalAlign=middle;whiteSpace=wrap;rounded=0;fontSize=15;" vertex="1" parent="1">
          <mxGeometry x="738.13" y="638" width="60" height="30" as="geometry" />
        </mxCell>
        <mxCell id="uESx4mzOo0HxvKaBSaLz-199" value="(2, 2)" style="text;html=1;strokeColor=none;fillColor=none;align=center;verticalAlign=middle;whiteSpace=wrap;rounded=0;fontSize=15;" vertex="1" parent="1">
          <mxGeometry x="677.25" y="770" width="60" height="30" as="geometry" />
        </mxCell>
        <mxCell id="uESx4mzOo0HxvKaBSaLz-200" value="(1, 1)" style="text;html=1;strokeColor=none;fillColor=none;align=center;verticalAlign=middle;whiteSpace=wrap;rounded=0;fontSize=15;" vertex="1" parent="1">
          <mxGeometry x="473.75" y="995" width="60" height="30" as="geometry" />
        </mxCell>
        <mxCell id="uESx4mzOo0HxvKaBSaLz-201" value="(0, 1)" style="text;html=1;strokeColor=none;fillColor=none;align=center;verticalAlign=middle;whiteSpace=wrap;rounded=0;fontSize=15;" vertex="1" parent="1">
          <mxGeometry x="473.75" y="881" width="60" height="30" as="geometry" />
        </mxCell>
        <mxCell id="uESx4mzOo0HxvKaBSaLz-202" value="(1, 1)" style="text;html=1;strokeColor=none;fillColor=none;align=center;verticalAlign=middle;whiteSpace=wrap;rounded=0;fontSize=15;" vertex="1" parent="1">
          <mxGeometry x="847.75" y="1076.5" width="60" height="30" as="geometry" />
        </mxCell>
        <mxCell id="uESx4mzOo0HxvKaBSaLz-203" value="(0, 1)" style="text;html=1;strokeColor=none;fillColor=none;align=center;verticalAlign=middle;whiteSpace=wrap;rounded=0;fontSize=15;" vertex="1" parent="1">
          <mxGeometry x="709.25" y="991.5" width="60" height="30" as="geometry" />
        </mxCell>
        <mxCell id="uESx4mzOo0HxvKaBSaLz-204" value="(2, 4)" style="text;html=1;strokeColor=none;fillColor=none;align=center;verticalAlign=middle;whiteSpace=wrap;rounded=0;fontSize=15;" vertex="1" parent="1">
          <mxGeometry x="867.25" y="832" width="60" height="30" as="geometry" />
        </mxCell>
        <mxCell id="uESx4mzOo0HxvKaBSaLz-205" value="(0, N)" style="text;html=1;strokeColor=none;fillColor=none;align=center;verticalAlign=middle;whiteSpace=wrap;rounded=0;fontSize=15;" vertex="1" parent="1">
          <mxGeometry x="873.25" y="608" width="60" height="30" as="geometry" />
        </mxCell>
        <mxCell id="uESx4mzOo0HxvKaBSaLz-206" value="(0, N)" style="text;html=1;strokeColor=none;fillColor=none;align=center;verticalAlign=middle;whiteSpace=wrap;rounded=0;fontSize=15;" vertex="1" parent="1">
          <mxGeometry x="684.5" y="603" width="60" height="30" as="geometry" />
        </mxCell>
        <mxCell id="uESx4mzOo0HxvKaBSaLz-207" value="(0, N)" style="text;html=1;strokeColor=none;fillColor=none;align=center;verticalAlign=middle;whiteSpace=wrap;rounded=0;fontSize=15;" vertex="1" parent="1">
          <mxGeometry x="346.25" y="678" width="60" height="30" as="geometry" />
        </mxCell>
        <mxCell id="uESx4mzOo0HxvKaBSaLz-209" value="(7, N)" style="text;html=1;strokeColor=none;fillColor=none;align=center;verticalAlign=middle;whiteSpace=wrap;rounded=0;fontSize=15;" vertex="1" parent="1">
          <mxGeometry x="268.25" y="608" width="60" height="30" as="geometry" />
        </mxCell>
        <mxCell id="uESx4mzOo0HxvKaBSaLz-210" value="(1, N)" style="text;html=1;strokeColor=none;fillColor=none;align=center;verticalAlign=middle;whiteSpace=wrap;rounded=0;fontSize=15;" vertex="1" parent="1">
          <mxGeometry x="391.25" y="296" width="60" height="30" as="geometry" />
        </mxCell>
        <mxCell id="uESx4mzOo0HxvKaBSaLz-211" value="(1, 1)" style="text;html=1;strokeColor=none;fillColor=none;align=center;verticalAlign=middle;whiteSpace=wrap;rounded=0;fontSize=15;" vertex="1" parent="1">
          <mxGeometry x="277.25" y="211.5" width="60" height="30" as="geometry" />
        </mxCell>
        <mxCell id="uESx4mzOo0HxvKaBSaLz-212" value="(1, 1)" style="text;html=1;strokeColor=none;fillColor=none;align=center;verticalAlign=middle;whiteSpace=wrap;rounded=0;fontSize=15;" vertex="1" parent="1">
          <mxGeometry x="1" y="827.5" width="60" height="30" as="geometry" />
        </mxCell>
        <mxCell id="uESx4mzOo0HxvKaBSaLz-213" value="(0, N)" style="text;html=1;strokeColor=none;fillColor=none;align=center;verticalAlign=middle;whiteSpace=wrap;rounded=0;fontSize=15;" vertex="1" parent="1">
          <mxGeometry x="122.25" y="673.5" width="60" height="30" as="geometry" />
        </mxCell>
        <mxCell id="uESx4mzOo0HxvKaBSaLz-216" value="&lt;font style=&quot;font-size: 12px&quot;&gt;main_position&lt;/font&gt;" style="text;html=1;strokeColor=none;fillColor=none;align=center;verticalAlign=middle;whiteSpace=wrap;rounded=0;fontSize=15;" vertex="1" parent="1">
          <mxGeometry x="299.25" y="572" width="60" height="30" as="geometry" />
        </mxCell>
        <mxCell id="uESx4mzOo0HxvKaBSaLz-223" style="rounded=0;orthogonalLoop=1;jettySize=auto;html=1;exitX=1;exitY=0;exitDx=0;exitDy=0;fontSize=16;startArrow=none;startFill=0;endArrow=oval;endFill=0;endSize=8;" edge="1" parent="1" source="uESx4mzOo0HxvKaBSaLz-219">
          <mxGeometry relative="1" as="geometry">
            <mxPoint x="487.25" y="760" as="targetPoint" />
          </mxGeometry>
        </mxCell>
        <mxCell id="uESx4mzOo0HxvKaBSaLz-219" value="" style="rhombus;whiteSpace=wrap;html=1;fontSize=12;fillColor=none;" vertex="1" parent="1">
          <mxGeometry x="374" y="750" width="108.5" height="80" as="geometry" />
        </mxCell>
        <mxCell id="uESx4mzOo0HxvKaBSaLz-220" value="&lt;font style=&quot;font-size: 16px&quot;&gt;Played&lt;/font&gt;" style="text;html=1;strokeColor=none;fillColor=none;align=center;verticalAlign=middle;whiteSpace=wrap;rounded=0;fontSize=12;" vertex="1" parent="1">
          <mxGeometry x="398.25" y="775" width="60" height="30" as="geometry" />
        </mxCell>
        <mxCell id="uESx4mzOo0HxvKaBSaLz-224" value="&lt;font style=&quot;font-size: 12px&quot;&gt;position&lt;/font&gt;" style="text;html=1;strokeColor=none;fillColor=none;align=center;verticalAlign=middle;whiteSpace=wrap;rounded=0;fontSize=16;" vertex="1" parent="1">
          <mxGeometry x="488.25" y="741" width="60" height="30" as="geometry" />
        </mxCell>
        <mxCell id="uESx4mzOo0HxvKaBSaLz-226" value="&lt;font style=&quot;font-size: 15px&quot;&gt;reason&lt;/font&gt;" style="text;html=1;strokeColor=none;fillColor=none;align=center;verticalAlign=middle;whiteSpace=wrap;rounded=0;fontSize=21;" vertex="1" parent="1">
          <mxGeometry x="821.25" y="1243" width="60" height="30" as="geometry" />
        </mxCell>
        <mxCell id="uESx4mzOo0HxvKaBSaLz-227" value="(12, N)" style="text;html=1;strokeColor=none;fillColor=none;align=center;verticalAlign=middle;whiteSpace=wrap;rounded=0;fontSize=15;" vertex="1" parent="1">
          <mxGeometry x="447.25" y="834" width="60" height="30" as="geometry" />
        </mxCell>
        <mxCell id="uESx4mzOo0HxvKaBSaLz-229" value="(0, N)" style="text;html=1;strokeColor=none;fillColor=none;align=center;verticalAlign=middle;whiteSpace=wrap;rounded=0;fontSize=15;" vertex="1" parent="1">
          <mxGeometry x="428.25" y="592" width="60" height="30" as="geometry" />
        </mxCell>
        <mxCell id="uESx4mzOo0HxvKaBSaLz-143" value="" style="ellipse;whiteSpace=wrap;html=1;aspect=fixed;fontSize=15;fillColor=#000000;" vertex="1" parent="1">
          <mxGeometry x="100" y="826" width="6" height="6" as="geometry" />
        </mxCell>
      </root>
    </mxGraphModel>
  </diagram>
</mxfile>
